<svg version="1.1" xmlns="http://www.w3.org/2000/svg" xmlns:xlink="http://www.w3.org/1999/xlink" width="105.50522" height="71.19348" viewBox="0,0,105.50522,71.19348"><g transform="translate(-174.25418,-135.46987)"><g data-paper-data="{&quot;isPaintingLayer&quot;:true}" fill-rule="nonzero" stroke-linejoin="miter" stroke-miterlimit="10" stroke-dasharray="" stroke-dashoffset="0" style="mix-blend-mode: normal"><path d="M227.88774,166.78559v11.75" fill="none" stroke="#633636" stroke-width="4" stroke-linecap="round"/><path d="M208.38774,166.78559v11.75" fill="none" stroke="#633636" stroke-width="4" stroke-linecap="round"/><path d="M215.76408,169.6632c0,0 -9.57012,-6.11688 -9.54233,-17.89185c0.02604,-11.02986 9.54233,-16.30147 9.54233,-16.30147h34.19332c0,0 -6.75914,4.45347 -7.15674,15.90387c-0.34215,9.85359 7.15674,18.28946 7.15674,18.28946z" fill="#000000" stroke="none" stroke-width="0" stroke-linecap="butt"/><path d="M218.63335,150.94762c0,-4.56345 3.6994,-8.26285 8.26284,-8.26285c4.56345,0 8.26286,3.6994 8.26286,8.26285c0,3.85855 -2.64482,7.09939 -6.22048,8.00851c-0.01916,-0.004 -0.03976,-0.00683 -0.06191,-0.00831c-0.12092,-0.00806 -0.20147,0.03001 -0.25507,0.08225c-0.30934,0.06571 -0.62507,0.11411 -0.94613,0.14414c-0.02527,-0.10039 -0.10074,-0.25029 -0.32611,-0.25029c-0.25396,0 -0.31758,0.19034 -0.33352,0.2857c-0.03981,0.00056 -0.07969,0.00085 -0.11963,0.00085c-0.25591,0 -0.50912,-0.01163 -0.7591,-0.0344c0,-0.00197 0,-0.00395 0,-0.00592c0,0 0,-0.33883 -0.33884,-0.33883c-0.23016,0 -0.30398,0.15634 -0.32766,0.25663c-3.88406,-0.67548 -6.83725,-4.06303 -6.83725,-8.14033zM229.41098,151.364c1.1228,0 2.03302,-0.91021 2.03302,-2.03302c0,-1.1228 -0.91021,-2.03302 -2.03302,-2.03302c-1.1228,0 -2.03303,0.91022 -2.03303,2.03302c0,1.1228 0.91022,2.03302 2.03303,2.03302zM222.9444,151.364c1.1228,0 2.03302,-0.91021 2.03302,-2.03302c0,-1.1228 -0.91022,-2.03302 -2.03302,-2.03302c-1.1228,0 -2.03302,0.91022 -2.03302,2.03302c0,1.1228 0.91021,2.03302 2.03302,2.03302zM225.1235,153.15071c0.38783,0.63192 0.74393,1.35953 1.07686,2.03145c0,0 0.03755,0.07511 0.11266,0.13185c-0.00143,0.07238 0.02445,0.15436 0.10643,0.23633c0.2396,0.2396 0.47919,0 0.47919,0c0.55636,-0.55655 1.03041,-1.1307 1.51899,-1.73979l0.07148,-0.26752c0.12885,-0.04797 0.22065,-0.17209 0.22065,-0.31766c0,-0.02265 -0.00222,-0.04477 -0.00646,-0.06617c0.09185,-0.03804 0.19321,-0.12201 0.19321,-0.30733c0,-0.33883 -0.33884,-0.33883 -0.33884,-0.33883l-0.15607,0.00139c-1.03428,-0.09302 -2.0983,-0.13641 -3.13619,-0.06278c0,0 -0.33797,0.02414 -0.31383,0.36212c0.00916,0.12832 0.06357,0.20444 0.12754,0.2495z" fill="#ffffff" stroke="none" stroke-width="0" stroke-linecap="butt"/><path d="M217.48663,162.43307c0,0 0.33583,1.84058 -1.14086,1.53249c-1.09718,-0.22891 -0.1481,-2.15473 -0.29836,-2.30035c-0.13122,-0.12716 -1.77002,1.34275 -2.00164,0.13964c-0.3641,-1.8912 1.37694,-1.37185 1.37694,-1.37185l19.62567,-20.2523c0,0 0.14323,-1.39572 0.84006,-1.40554c0.82067,-0.01156 0.95729,1.3308 1.10319,1.47218c0.17326,0.16789 1.49747,-0.25636 1.57992,0.62839c0.09282,0.99591 -1.45925,1.30503 -1.45925,1.30503l-5.94164,6.13136c-0.35186,-0.60638 -1.00814,-1.01416 -1.75967,-1.01416c-1.1228,0 -2.03303,0.91022 -2.03303,2.03302c0,0.77434 0.43292,1.44758 1.06992,1.79086l-1.26973,1.31027c-0.63886,-0.02675 -1.28064,-0.02531 -1.91273,0.01954c0,0 -0.33797,0.02414 -0.31383,0.36212c0.00916,0.12832 0.06357,0.20444 0.12754,0.2495l0.04438,0.08743c0.17246,0.28099 0.33863,0.5809 0.49929,0.88642z" fill="#ffffff" stroke="none" stroke-width="0" stroke-linecap="butt"/><path d="M237.39369,160.08775c0,0 2.24737,-0.35999 1.72034,1.40867c-0.27752,0.93134 -1.80092,0.14666 -1.96231,0.31321c-0.16631,0.17162 0.39198,1.40464 -0.70648,1.95651c-1.02857,0.51676 -1.05162,-1.61446 -1.05162,-1.61446l-7.70069,-7.46242c0.24579,-0.28578 0.48347,-0.57798 0.72469,-0.87871l0.07148,-0.26752c0.12885,-0.04797 0.22065,-0.17209 0.22065,-0.31766c0,-0.02265 -0.00222,-0.04477 -0.00646,-0.06617c0.09185,-0.03804 0.19321,-0.12201 0.19321,-0.30733c0,-0.33883 -0.33884,-0.33883 -0.33884,-0.33883l-0.15607,0.00139c-0.99749,-0.08971 -2.02266,-0.13326 -3.02536,-0.07019l-1.40288,-1.35948c0.60081,-0.35325 1.00407,-1.00643 1.00407,-1.75378c0,-1.1228 -0.91022,-2.03302 -2.03302,-2.03302c-0.77017,0 -1.44032,0.42827 -1.78529,1.05964l-6.0178,-5.83159c0,0 -1.93668,-0.1072 -1.56951,-1.46228c0.29147,-1.07572 1.77762,-0.36091 1.9106,-0.49814c0.17257,-0.17809 -0.2974,-1.73232 0.64793,-1.83865c1.493,-0.16793 1.01104,1.73515 1.01104,1.73515z" fill="#ffffff" stroke="none" stroke-width="0" stroke-linecap="butt"/><path d="M223.12402,161.54563v-3.9518h7.00546v3.9518h-1.11898c0.01887,-0.75731 0.12966,-1.47906 0.18169,-2.23718c0,0 0.02254,-0.33809 -0.31555,-0.36062c-0.33809,-0.02254 -0.36062,0.31555 -0.36062,0.31555c-0.04973,0.77184 -0.16404,1.50986 -0.18321,2.28226h-0.69095v-0.06043c0,-0.74391 0.0463,-1.47921 0.0463,-2.22244c0,0 0,-0.33883 -0.33884,-0.33883c-0.33883,0 -0.33884,0.33883 -0.33884,0.33883c0,0.74301 -0.0463,1.47854 -0.0463,2.22244v0.06043h-0.75765v-0.19934c-0.00129,-0.72528 -0.06945,-1.44788 -0.06945,-2.17614c0,0 0,-0.33883 -0.33884,-0.33883c-0.33883,0 -0.33884,0.33883 -0.33884,0.33883c0,0.7278 0.07091,1.45164 0.06946,2.17614v0.19934h-0.85066l-0.00034,-0.10735c0.04888,-0.7389 -0.02369,-1.4632 -0.0224,-2.19867c0,0 0,-0.33884 -0.33884,-0.33884c-0.33883,0 -0.33884,0.33884 -0.33884,0.33884c0.00114,0.72089 0.07257,1.42974 0.02391,2.1536l-0.00042,0.15242z" fill="#ffffff" stroke="none" stroke-width="0" stroke-linecap="butt"/><path d="M224.74067,158.67159v5.56844" fill="none" stroke="none" stroke-width="0" stroke-linecap="round"/><path d="M174.41532,179.74366c0,0 -0.63618,-0.92678 0.61962,-1.58334c0.58264,-0.30462 4.0829,-0.08172 4.0829,-0.08172l100.64156,0.33172c0,0 -0.61957,3.41896 -3.5717,7.87881c-0.18649,0.11181 -0.32036,0.30236 -0.35565,0.5257c-5.5668,8.05322 -18.69185,19.09368 -48.95302,19.82486c-39.22007,0.94765 -52.4637,-26.89603 -52.4637,-26.89603z" fill="#633535" stroke="#000000" stroke-width="0" stroke-linecap="butt"/><path d="M196.26408,169.6632c0,0 -9.57012,-6.11688 -9.54233,-17.89185c0.02604,-11.02986 9.54233,-16.30147 9.54233,-16.30147h34.19332c0,0 -6.75914,4.45347 -7.15674,15.90387c-0.34215,9.85359 7.15674,18.28946 7.15674,18.28946z" fill="#000000" stroke="none" stroke-width="0" stroke-linecap="butt"/><path d="" fill="#ffffff" stroke="none" stroke-width="0" stroke-linecap="butt"/><path d="" fill="#ffffff" stroke="none" stroke-width="0" stroke-linecap="butt"/><path d="" fill="#ffffff" stroke="none" stroke-width="0" stroke-linecap="butt"/><path d="" fill="#ffffff" stroke="none" stroke-width="0" stroke-linecap="butt"/><path d="" fill="#ffffff" stroke="none" stroke-width="0" stroke-linecap="butt"/><path d="" fill="#ffffff" stroke="none" stroke-width="0" stroke-linecap="butt"/><path d="" fill="#ffffff" stroke="none" stroke-width="0" stroke-linecap="butt"/><path d="" fill="#ffffff" stroke="none" stroke-width="0" stroke-linecap="butt"/><path d="" fill="#ffffff" stroke="none" stroke-width="0" stroke-linecap="butt"/><path d="" fill="#ffffff" stroke="none" stroke-width="0" stroke-linecap="butt"/><path d="" fill="#ffffff" stroke="none" stroke-width="0" stroke-linecap="butt"/><path d="" fill="#ffffff" stroke="none" stroke-width="0" stroke-linecap="butt"/><path d="M199.13335,150.94762c0,-4.56345 3.6994,-8.26285 8.26284,-8.26285c4.56345,0 8.26286,3.6994 8.26286,8.26285c0,3.85855 -2.64482,7.09939 -6.22048,8.00851c-0.01916,-0.004 -0.03976,-0.00683 -0.06191,-0.00831c-0.12092,-0.00806 -0.20147,0.03001 -0.25507,0.08225c-0.30934,0.06571 -0.62507,0.11411 -0.94613,0.14414c-0.02527,-0.10039 -0.10074,-0.25029 -0.32611,-0.25029c-0.25396,0 -0.31758,0.19034 -0.33352,0.2857c-0.03981,0.00056 -0.07969,0.00085 -0.11963,0.00085c-0.25591,0 -0.50912,-0.01163 -0.7591,-0.0344c0,-0.00197 0,-0.00395 0,-0.00592c0,0 0,-0.33883 -0.33884,-0.33883c-0.23016,0 -0.30398,0.15634 -0.32766,0.25663c-3.88406,-0.67548 -6.83725,-4.06303 -6.83725,-8.14033zM209.91098,151.364c1.1228,0 2.03302,-0.91021 2.03302,-2.03302c0,-1.1228 -0.91021,-2.03302 -2.03302,-2.03302c-1.1228,0 -2.03303,0.91022 -2.03303,2.03302c0,1.1228 0.91022,2.03302 2.03303,2.03302zM203.4444,151.364c1.1228,0 2.03302,-0.91021 2.03302,-2.03302c0,-1.1228 -0.91022,-2.03302 -2.03302,-2.03302c-1.1228,0 -2.03302,0.91022 -2.03302,2.03302c0,1.1228 0.91021,2.03302 2.03302,2.03302zM205.6235,153.15071c0.38783,0.63192 0.74393,1.35953 1.07686,2.03145c0,0 0.03755,0.07511 0.11266,0.13185c-0.00143,0.07238 0.02445,0.15436 0.10643,0.23633c0.2396,0.2396 0.47919,0 0.47919,0c0.55636,-0.55655 1.03041,-1.1307 1.51899,-1.73979l0.07148,-0.26752c0.12885,-0.04797 0.22065,-0.17209 0.22065,-0.31766c0,-0.02265 -0.00222,-0.04477 -0.00646,-0.06617c0.09185,-0.03804 0.19321,-0.12201 0.19321,-0.30733c0,-0.33883 -0.33884,-0.33883 -0.33884,-0.33883l-0.15607,0.00139c-1.03428,-0.09302 -2.0983,-0.13641 -3.13619,-0.06278c0,0 -0.33797,0.02414 -0.31383,0.36212c0.00916,0.12832 0.06357,0.20444 0.12754,0.2495z" fill="#ffffff" stroke="none" stroke-width="0" stroke-linecap="butt"/><path d="M197.98663,162.43307c0,0 0.33583,1.84058 -1.14086,1.53249c-1.09718,-0.22891 -0.1481,-2.15473 -0.29836,-2.30035c-0.13122,-0.12716 -1.77002,1.34275 -2.00164,0.13964c-0.3641,-1.8912 1.37694,-1.37185 1.37694,-1.37185l19.62567,-20.2523c0,0 0.14323,-1.39572 0.84006,-1.40554c0.82067,-0.01156 0.95729,1.3308 1.10319,1.47218c0.17326,0.16789 1.49747,-0.25636 1.57992,0.62839c0.09282,0.99591 -1.45925,1.30503 -1.45925,1.30503l-5.94164,6.13136c-0.35186,-0.60638 -1.00814,-1.01416 -1.75967,-1.01416c-1.1228,0 -2.03303,0.91022 -2.03303,2.03302c0,0.77434 0.43292,1.44758 1.06992,1.79086l-1.26973,1.31027c-0.63886,-0.02675 -1.28064,-0.02531 -1.91273,0.01954c0,0 -0.33797,0.02414 -0.31383,0.36212c0.00916,0.12832 0.06357,0.20444 0.12754,0.2495l0.04438,0.08743c0.17246,0.28099 0.33863,0.5809 0.49929,0.88642z" fill="#ffffff" stroke="none" stroke-width="0" stroke-linecap="butt"/><path d="M217.89369,160.08775c0,0 2.24737,-0.35999 1.72034,1.40867c-0.27752,0.93134 -1.80092,0.14666 -1.96231,0.31321c-0.16631,0.17162 0.39198,1.40464 -0.70648,1.95651c-1.02857,0.51676 -1.05162,-1.61446 -1.05162,-1.61446l-7.70069,-7.46242c0.24579,-0.28578 0.48347,-0.57798 0.72469,-0.87871l0.07148,-0.26752c0.12885,-0.04797 0.22065,-0.17209 0.22065,-0.31766c0,-0.02265 -0.00222,-0.04477 -0.00646,-0.06617c0.09185,-0.03804 0.19321,-0.12201 0.19321,-0.30733c0,-0.33883 -0.33884,-0.33883 -0.33884,-0.33883l-0.15607,0.00139c-0.99749,-0.08971 -2.02266,-0.13326 -3.02536,-0.07019l-1.40288,-1.35948c0.60081,-0.35325 1.00407,-1.00643 1.00407,-1.75378c0,-1.1228 -0.91022,-2.03302 -2.03302,-2.03302c-0.77017,0 -1.44032,0.42827 -1.78529,1.05964l-6.0178,-5.83159c0,0 -1.93668,-0.1072 -1.56951,-1.46228c0.29147,-1.07572 1.77762,-0.36091 1.9106,-0.49814c0.17257,-0.17809 -0.2974,-1.73232 0.64793,-1.83865c1.493,-0.16793 1.01104,1.73515 1.01104,1.73515z" fill="#ffffff" stroke="none" stroke-width="0" stroke-linecap="butt"/><path d="M203.62402,161.54563v-3.9518h7.00546v3.9518h-1.11898c0.01887,-0.75731 0.12966,-1.47906 0.18169,-2.23718c0,0 0.02254,-0.33809 -0.31555,-0.36062c-0.33809,-0.02254 -0.36062,0.31555 -0.36062,0.31555c-0.04973,0.77184 -0.16404,1.50986 -0.18321,2.28226h-0.69095v-0.06043c0,-0.74391 0.0463,-1.47921 0.0463,-2.22244c0,0 0,-0.33883 -0.33884,-0.33883c-0.33883,0 -0.33884,0.33883 -0.33884,0.33883c0,0.74301 -0.0463,1.47854 -0.0463,2.22244v0.06043h-0.75765v-0.19934c-0.00129,-0.72528 -0.06945,-1.44788 -0.06945,-2.17614c0,0 0,-0.33883 -0.33884,-0.33883c-0.33883,0 -0.33884,0.33883 -0.33884,0.33883c0,0.7278 0.07091,1.45164 0.06946,2.17614v0.19934h-0.85066l-0.00034,-0.10735c0.04888,-0.7389 -0.02369,-1.4632 -0.0224,-2.19867c0,0 0,-0.33884 -0.33884,-0.33884c-0.33883,0 -0.33884,0.33884 -0.33884,0.33884c0.00114,0.72089 0.07257,1.42974 0.02391,2.1536l-0.00042,0.15242z" fill="#ffffff" stroke="none" stroke-width="0" stroke-linecap="butt"/><path d="M205.24067,158.67159v5.56844" fill="none" stroke="none" stroke-width="0" stroke-linecap="round"/><path d="M252.88774,178.78559c0,0 0,-8.37258 0,-10.9c0,-0.85166 0.42655,-1.95978 0.80299,-2.2c0.37359,-0.2384 0.85915,-0.9 2.43407,-0.9c3.04039,0 13.79845,0 19.68794,0c1.10897,0 2.44575,0.16325 2.725,0.5c0.37367,0.45061 1.2,1.25214 1.2,2.6c0,2.52742 0,10.9 0,10.9z" fill="#633535" stroke="none" stroke-width="0" stroke-linecap="butt"/><g stroke="none" stroke-width="0" stroke-linecap="butt"><path d="M261.31011,175.98737v-6.49024c0,0 -0.08376,-1.60297 0.80669,-2.49342c0.89045,-0.89046 2.42008,-0.73336 2.42008,-0.73336h3.22679c0,0 1.72465,-0.01498 2.46643,0.8342c0.85748,0.98162 0.79702,2.46592 0.79702,2.46592v6.4169z" fill="#000000"/><path d="M264.35355,175.9507v-9.71702h0.88004v9.71702z" fill="#884747"/><path d="M267.03031,175.9507v-9.71702h0.88003v9.71702z" fill="#884747"/><path d="M271.04546,170.02882h-9.71702v-0.88003h9.71702z" fill="#884747"/><path d="M271.04546,173.18227h-9.71702v-0.88003h9.71702z" fill="#884747"/></g><path d="M195.41667,186.61247c0,-1.84095 1.49239,-3.33333 3.33334,-3.33333c1.84095,0 3.33334,1.49238 3.33334,3.33333c0,1.84095 -1.49239,3.33334 -3.33334,3.33334c-1.84095,0 -3.33334,-1.49239 -3.33334,-3.33334z" fill="#000000" stroke="none" stroke-width="0" stroke-linecap="butt"/><path d="M205.41667,186.61247c0,-1.84095 1.49239,-3.33333 3.33334,-3.33333c1.84095,0 3.33334,1.49238 3.33334,3.33333c0,1.84095 -1.49239,3.33334 -3.33334,3.33334c-1.84095,0 -3.33334,-1.49239 -3.33334,-3.33334z" fill="#000000" stroke="none" stroke-width="0" stroke-linecap="butt"/><path d="M215.16667,186.61247c0,-1.84095 1.49239,-3.33333 3.33334,-3.33333c1.84095,0 3.33334,1.49238 3.33334,3.33333c0,1.84095 -1.49239,3.33334 -3.33334,3.33334c-1.84095,0 -3.33334,-1.49239 -3.33334,-3.33334z" fill="#000000" stroke="none" stroke-width="0" stroke-linecap="butt"/><path d="M224.66667,186.61247c0,-1.84095 1.49239,-3.33333 3.33334,-3.33333c1.84095,0 3.33334,1.49238 3.33334,3.33333c0,1.84095 -1.49239,3.33334 -3.33334,3.33334c-1.84095,0 -3.33334,-1.49239 -3.33334,-3.33334z" fill="#000000" stroke="none" stroke-width="0" stroke-linecap="butt"/><path d="M234.16667,186.61247c0,-1.84095 1.49239,-3.33333 3.33334,-3.33333c1.84095,0 3.33334,1.49238 3.33334,3.33333c0,1.84095 -1.49239,3.33334 -3.33334,3.33334c-1.84095,0 -3.33334,-1.49239 -3.33334,-3.33334z" fill="#000000" stroke="none" stroke-width="0" stroke-linecap="butt"/><path d="M243.66667,186.61247c0,-1.84095 1.49239,-3.33333 3.33334,-3.33333c1.84095,0 3.33334,1.49238 3.33334,3.33333c0,1.84095 -1.49239,3.33334 -3.33334,3.33334c-1.84095,0 -3.33334,-1.49239 -3.33334,-3.33334z" fill="#000000" stroke="none" stroke-width="0" stroke-linecap="butt"/><path d="M252.66667,186.61247c0,-1.84095 1.49239,-3.33333 3.33334,-3.33333c1.84095,0 3.33334,1.49238 3.33334,3.33333c0,1.84095 -1.49239,3.33334 -3.33334,3.33334c-1.84095,0 -3.33334,-1.49239 -3.33334,-3.33334z" fill="#000000" stroke="none" stroke-width="0" stroke-linecap="butt"/></g></g></svg>